
<svg width="28" height="28" viewBox="0 0 28 28" fill="none" xmlns="http://www.w3.org/2000/svg">
<path d="M13.75 21.5527H14C14.1791 21.5527 14.3768 21.5942 14.549 21.697C17.644 23.4885 21.128 24.5175 24.6989 24.6911C24.5179 21.1189 23.4964 17.6343 21.7047 14.5393L13.75 21.5527ZM13.75 21.5527V21.589V21.5527ZM24.6989 3.29263C21.1269 3.47374 17.6423 4.49526 14.5475 6.28703C14.2082 6.48387 13.7918 6.48388 13.4526 6.28707C10.3576 4.50344 6.87299 3.48217 3.30105 3.30107C3.48216 6.87312 4.50368 10.3577 6.29545 13.4525C6.49233 13.7918 6.4923 14.2083 6.29537 14.5476C6.29534 14.5477 6.29531 14.5477 6.29529 14.5478L24.6989 3.29263ZM24.6989 3.29263C24.5178 6.86458 23.4963 10.349 21.7047 13.4438C21.5077 13.7831 21.5076 14.1997 21.7045 14.539L24.6989 3.29263ZM3.28972 24.9498C3.29303 24.8661 3.29681 24.7825 3.30105 24.6989L3.28972 24.9498ZM3.28972 24.9498C3.20622 24.954 3.12268 24.9577 3.03909 24.9609L3.28972 24.9498ZM2.17776 26.9167C6.31169 26.9167 10.3871 25.8738 14 23.9034C17.6129 25.8738 21.6883 26.9167 25.8222 26.9167C26.4247 26.9167 26.9166 26.4247 26.9166 25.8222C26.9166 21.6882 25.8737 17.6128 23.9033 13.9999C25.8736 10.3791 26.9166 6.31198 26.9166 2.17778C26.9166 1.57526 26.4247 1.08334 25.8222 1.08334C21.6883 1.08334 17.6129 2.12621 14 4.09658C10.3871 2.12621 6.31169 1.08334 2.17776 1.08334C1.57524 1.08334 1.08331 1.57526 1.08331 2.17778C1.08331 6.31198 2.12632 10.3791 4.09663 13.9999C2.12622 17.6128 1.08331 21.6882 1.08331 25.8222C1.08331 26.4247 1.57524 26.9167 2.17776 26.9167Z" fill="#E6691A" stroke="#E6691A" stroke-width="0.5"/>
</svg>
