
<svg width="162" height="38" viewBox="0 0 162 38" fill="none" xmlns="http://www.w3.org/2000/svg">
<g clip-path="url(#clip0_317_78)">
<path d="M15.2502 26.5527H15.5002C15.6793 26.5527 15.8769 26.5942 16.0492 26.697C19.1441 28.4885 22.6282 29.5175 26.1991 29.6911C26.0181 26.1189 24.9966 22.6343 23.2049 19.5393L15.2502 26.5527ZM15.2502 26.5527V26.589V26.5527ZM26.1991 8.29263C22.627 8.47374 19.1425 9.49526 16.0476 11.287C15.7084 11.4839 15.292 11.4839 14.9528 11.2871C11.8578 9.50344 8.37317 8.48217 4.80123 8.30107C4.98235 11.8731 6.00387 15.3577 7.79563 18.4525C7.99251 18.7918 7.99249 19.2083 7.79555 19.5476C7.79552 19.5477 7.7955 19.5477 7.79547 19.5478L26.1991 8.29263ZM26.1991 8.29263C26.018 11.8646 24.9965 15.349 23.2049 18.4438C23.0078 18.7831 23.0078 19.1997 23.2047 19.539L26.1991 8.29263ZM4.7899 29.9498C4.79322 29.8661 4.79699 29.7825 4.80123 29.6989L4.7899 29.9498ZM4.7899 29.9498C4.7064 29.954 4.62286 29.9577 4.53927 29.9609L4.7899 29.9498ZM3.67794 31.9167C7.81188 31.9167 11.8873 30.8738 15.5002 28.9034C19.1131 30.8738 23.1884 31.9167 27.3224 31.9167C27.9249 31.9167 28.4168 31.4247 28.4168 30.8222C28.4168 26.6882 27.3739 22.6128 25.4035 18.9999C27.3738 15.3791 28.4168 11.312 28.4168 7.17778C28.4168 6.57526 27.9249 6.08334 27.3224 6.08334C23.1884 6.08334 19.1131 7.12621 15.5002 9.09658C11.8873 7.12621 7.81188 6.08334 3.67794 6.08334C3.07542 6.08334 2.5835 6.57526 2.5835 7.17778C2.5835 11.312 3.6265 15.3791 5.59682 18.9999C3.6264 22.6128 2.5835 26.6882 2.5835 30.8222C2.5835 31.4247 3.07542 31.9167 3.67794 31.9167Z" fill="#E6691A" stroke="#E6691A" stroke-width="0.5"/>
</g>
<path d="M45.44 9.82V24.14H43.3V9.82H45.44ZM47.8313 14.24H49.7913V15.64C50.4846 14.64 51.3313 14.08 52.3313 13.96C53.3046 13.84 54.1179 13.96 54.7713 14.32C55.4246 14.68 55.8913 15.1467 56.1713 15.72C56.4646 16.3467 56.6113 17.4067 56.6113 18.9V24.1H54.5113V18.78C54.5113 18.2733 54.4846 17.8667 54.4313 17.56C54.3913 17.2533 54.2913 16.9467 54.1313 16.64C53.9713 16.32 53.7046 16.1 53.3313 15.98C52.9579 15.8467 52.4779 15.7933 51.8913 15.82C51.3713 15.86 50.8979 16.1667 50.4713 16.74C50.0446 17.3133 49.8313 18.12 49.8313 19.16V24.1H47.8313V14.24ZM64.107 23.94C63.2537 24.2867 62.3737 24.3667 61.467 24.18C60.6804 23.9933 60.127 23.6133 59.807 23.04C59.487 22.4533 59.327 21.8067 59.327 21.1V16.06H57.607V14.22H58.847C59.1137 14.22 59.2804 14.1867 59.347 14.12C59.4137 14.04 59.447 13.8867 59.447 13.66V11.26H61.387V14.22H63.807V16.06H61.367V19.44C61.367 20.8533 61.4737 21.68 61.687 21.92C61.9004 22.16 62.1937 22.3067 62.567 22.36C62.9404 22.4 63.227 22.3467 63.427 22.2L64.107 23.94ZM64.9016 19.12C64.9016 17.48 65.3749 16.2067 66.3216 15.3C67.2682 14.38 68.4482 13.92 69.8616 13.92C71.2882 13.92 72.4749 14.4133 73.4216 15.4C74.3816 16.3733 74.7882 17.76 74.6416 19.56L66.9616 19.64C66.9616 19.8667 67.0082 20.1267 67.1016 20.42C67.1949 20.7133 67.3349 21.0267 67.5216 21.36C67.7082 21.68 67.9949 21.96 68.3816 22.2C68.7682 22.4267 69.2082 22.5467 69.7016 22.56C71.0749 22.6267 72.0616 22.0933 72.6616 20.96L74.5616 21.5C74.2682 22.22 73.7149 22.8733 72.9016 23.46C72.0882 24.0333 71.0882 24.32 69.9016 24.32C68.3549 24.32 67.1349 23.8267 66.2416 22.84C65.3482 21.8533 64.9016 20.6133 64.9016 19.12ZM67.1216 17.96L72.4816 17.94C72.4816 17.38 72.2082 16.8533 71.6616 16.36C71.1149 15.8533 70.3816 15.6467 69.4616 15.74C68.8349 15.7933 68.3016 16.0333 67.8616 16.46C67.4349 16.8867 67.1882 17.3867 67.1216 17.96ZM78.2488 24.08L76.2688 24.06V14.28H78.2488V15.74C78.5554 14.98 79.1488 14.44 80.0288 14.12C80.3888 13.9867 80.8021 13.94 81.2688 13.98C81.7488 14.0067 82.1554 14.12 82.4888 14.32L81.9288 16.1C81.5421 15.9 81.0288 15.88 80.3888 16.04C79.7488 16.2 79.2421 16.4867 78.8688 16.9C78.5754 17.2333 78.3954 17.62 78.3288 18.06C78.2754 18.4867 78.2488 19.3 78.2488 20.5C78.2488 20.7533 78.2488 20.9467 78.2488 21.08V24.08ZM87.1153 24.1L82.8953 14.22L85.1953 14.2L87.9953 21.42L90.8153 14.2L93.0553 14.22L88.8353 24.1H87.1153ZM96.5017 11.9C96.2351 12.1667 95.9017 12.3 95.5017 12.3C95.1017 12.3 94.7617 12.1667 94.4817 11.9C94.2017 11.6333 94.0617 11.3 94.0617 10.9C94.0617 10.5 94.2017 10.1667 94.4817 9.9C94.7617 9.63333 95.1017 9.5 95.5017 9.5C95.9017 9.5 96.2351 9.63333 96.5017 9.9C96.7817 10.1667 96.9217 10.5 96.9217 10.9C96.9217 11.3 96.7817 11.6333 96.5017 11.9ZM96.5417 14.14V24.14H94.4417V14.14H96.5417ZM98.5148 19.12C98.5148 17.48 98.9882 16.2067 99.9348 15.3C100.882 14.38 102.062 13.92 103.475 13.92C104.902 13.92 106.088 14.4133 107.035 15.4C107.995 16.3733 108.402 17.76 108.255 19.56L100.575 19.64C100.575 19.8667 100.622 20.1267 100.715 20.42C100.808 20.7133 100.948 21.0267 101.135 21.36C101.322 21.68 101.608 21.96 101.995 22.2C102.382 22.4267 102.822 22.5467 103.315 22.56C104.688 22.6267 105.675 22.0933 106.275 20.96L108.175 21.5C107.882 22.22 107.328 22.8733 106.515 23.46C105.702 24.0333 104.702 24.32 103.515 24.32C101.968 24.32 100.748 23.8267 99.8548 22.84C98.9615 21.8533 98.5148 20.6133 98.5148 19.12ZM100.735 17.96L106.095 17.94C106.095 17.38 105.822 16.8533 105.275 16.36C104.728 15.8533 103.995 15.6467 103.075 15.74C102.448 15.7933 101.915 16.0333 101.475 16.46C101.048 16.8867 100.802 17.3867 100.735 17.96ZM121.997 14.24H124.037L120.937 24.12H118.857L116.497 16.84L114.177 24.1H112.097L108.877 14.2H110.937L113.177 21.36L115.537 14.14H117.577L119.957 21.44L121.997 14.24ZM131.445 9.74H136.685C137.818 9.74 138.818 10.0667 139.685 10.72C140.552 11.36 140.985 12.26 140.985 13.42C140.985 14.1 140.865 14.6733 140.625 15.14C140.398 15.6067 140.158 15.9333 139.905 16.12C139.652 16.3067 139.338 16.48 138.965 16.64C139.285 16.7733 139.485 16.86 139.565 16.9C139.658 16.94 139.858 17.0667 140.165 17.28C140.485 17.4933 140.712 17.7133 140.845 17.94C140.978 18.1533 141.112 18.48 141.245 18.92C141.378 19.3467 141.445 19.8267 141.445 20.36C141.445 21.1467 141.192 21.8333 140.685 22.42C140.192 23.0067 139.612 23.4333 138.945 23.7C138.292 23.9533 137.645 24.08 137.005 24.08H131.425L131.445 9.74ZM133.585 15.84C135.385 15.8 136.472 15.78 136.845 15.78C137.338 15.78 137.798 15.6 138.225 15.24C138.665 14.8667 138.885 14.3267 138.885 13.62C138.885 13.22 138.798 12.88 138.625 12.6C138.452 12.3067 138.218 12.0933 137.925 11.96C137.645 11.8133 137.372 11.7133 137.105 11.66C136.838 11.5933 136.565 11.56 136.285 11.56H133.565L133.585 15.84ZM133.625 22.18C134.932 22.1533 136.098 22.14 137.125 22.14C137.658 22.14 138.152 21.96 138.605 21.6C139.072 21.2267 139.305 20.66 139.305 19.9C139.305 19.18 139.072 18.64 138.605 18.28C138.152 17.9067 137.552 17.72 136.805 17.72L133.625 17.74V22.18ZM144.156 22.86C143.143 21.8067 142.636 20.5533 142.636 19.1C142.636 17.6467 143.143 16.4133 144.156 15.4C145.169 14.3867 146.416 13.88 147.896 13.88C149.363 13.88 150.603 14.3867 151.616 15.4C152.629 16.4133 153.136 17.6467 153.136 19.1C153.136 20.5533 152.629 21.8067 151.616 22.86C150.603 23.9133 149.363 24.44 147.896 24.44C146.416 24.44 145.169 23.9133 144.156 22.86ZM144.776 19.12C144.776 20.1333 145.083 20.9533 145.696 21.58C146.323 22.2067 147.063 22.52 147.916 22.52C148.769 22.52 149.503 22.2133 150.116 21.6C150.729 20.9733 151.036 20.1467 151.036 19.12C151.036 18.1467 150.723 17.3467 150.096 16.72C149.483 16.08 148.756 15.76 147.916 15.76C147.076 15.76 146.343 16.08 145.716 16.72C145.089 17.3467 144.776 18.1467 144.776 19.12ZM160.24 23.94C159.387 24.2867 158.507 24.3667 157.6 24.18C156.813 23.9933 156.26 23.6133 155.94 23.04C155.62 22.4533 155.46 21.8067 155.46 21.1V16.06H153.74V14.22H154.98C155.247 14.22 155.413 14.1867 155.48 14.12C155.547 14.04 155.58 13.8867 155.58 13.66V11.26H157.52V14.22H159.94V16.06H157.5V19.44C157.5 20.8533 157.607 21.68 157.82 21.92C158.033 22.16 158.327 22.3067 158.7 22.36C159.073 22.4 159.36 22.3467 159.56 22.2L160.24 23.94Z" fill="black"/>
<defs>
<clipPath id="clip0_317_78">
<rect width="30" height="38" fill="white" transform="translate(0.5)"/>
</clipPath>
</defs>
</svg>
