
<svg width="19" height="15" viewBox="0 0 19 15" fill="none" xmlns="http://www.w3.org/2000/svg">
<path d="M18.9116 1.73846C18.889 1.26976 18.6668 0.846387 18.3334 0.534519C18.0001 0.222651 17.5556 0.0658245 17.0886 0.111142C16.6215 0.133791 16.1996 0.356818 15.9105 0.691345L7.02108 10.7271L2.95571 7.02394C2.62235 6.71207 2.17788 6.55524 1.71083 6.5779C1.24378 6.60055 0.821883 6.80092 0.532798 7.13545C0.222023 7.46997 0.0657464 7.91601 0.0883256 8.3847C0.110896 8.8534 0.310562 9.27678 0.643916 9.56688L6.00026 14.4505C6.31103 14.7406 6.73381 14.8966 7.15571 14.8966H7.26682C7.7113 14.8739 8.13319 14.6735 8.46655 14.3164L18.5114 2.96519C18.7788 2.63066 18.9342 2.18449 18.9116 1.73846Z" fill="#1A9660"/>
</svg>
