
<svg width="37" height="36" viewBox="0 0 37 36" fill="none" xmlns="http://www.w3.org/2000/svg">
<rect x="0.5" width="36" height="36" rx="18" fill="#F5F5F5"/>
<path d="M13.75 25C12.4402 25 11.321 24.5406 10.3926 23.6219C9.4642 22.7031 9 21.5802 9 20.2531C9 19.1156 9.33826 18.1021 10.0148 17.2125C10.6913 16.3229 11.5765 15.7542 12.6705 15.5062C13.0303 14.1646 13.75 13.0781 14.8295 12.2469C15.9091 11.4156 17.1326 11 18.5 11C20.1841 11 21.6127 11.5943 22.7858 12.7828C23.9589 13.9714 24.5455 15.4187 24.5455 17.125C25.5386 17.2417 26.3627 17.6755 27.0176 18.4266C27.6725 19.1776 28 20.0562 28 21.0625C28 22.1562 27.6222 23.0859 26.8665 23.8516C26.1108 24.6172 25.1932 25 24.1136 25H19.3636C18.8886 25 18.482 24.8286 18.1438 24.4859C17.8055 24.1432 17.6364 23.7312 17.6364 23.25V18.7438L16.2545 20.1L15.0455 18.875L18.5 15.375L21.9545 18.875L20.7455 20.1L19.3636 18.7438V23.25H24.1136C24.7182 23.25 25.2292 23.0385 25.6466 22.6156C26.064 22.1927 26.2727 21.675 26.2727 21.0625C26.2727 20.45 26.064 19.9323 25.6466 19.5094C25.2292 19.0865 24.7182 18.875 24.1136 18.875H22.8182V17.125C22.8182 15.9146 22.3972 14.8828 21.5551 14.0297C20.7131 13.1766 19.6947 12.75 18.5 12.75C17.3053 12.75 16.2869 13.1766 15.4449 14.0297C14.6028 14.8828 14.1818 15.9146 14.1818 17.125H13.75C12.9152 17.125 12.2027 17.424 11.6125 18.0219C11.0223 18.6198 10.7273 19.3417 10.7273 20.1875C10.7273 21.0333 11.0223 21.7552 11.6125 22.3531C12.2027 22.951 12.9152 23.25 13.75 23.25H15.9091V25H13.75Z" fill="#7A7A7A" fill-opacity="0.8"/>
</svg>
